<?xml version='1.0' encoding='iso-8859-1'?>
<svg version="1.1" xmlns="http://www.w3.org/2000/svg" viewBox="0 0 44 44" xmlns:xlink="http://www.w3.org/1999/xlink" enable-background="new 0 0 44 44">
  <g>
    <g>
      <path fill-rule="evenodd" d="m44,22.025c0-0.404-0.243-0.748-0.588-0.906h0.054c-5.281-5.534-13.212-10.149-21.466-10.149s-16.185,4.615-21.466,10.149h0.054c-0.345,0.158-0.588,0.502-0.588,0.906 0,0.405 0.243,0.749 0.588,0.906h-0.054c5.289,5.536 13.199,10.099 21.466,10.099s16.208-4.563 21.497-10.099h-0.085c0.345-0.157 0.588-0.5 0.588-0.906zm-3.42,.941c-4.795,4.316-11.618,8.063-18.58,8.063-6.981,0-13.791-3.761-18.589-8.098l-.909-.895 1.172-1.115-.017-.018c4.776-4.21 11.49-7.935 18.343-7.935 6.965,0 13.793,3.811 18.582,8.142l.898,.91-.9,.946zm-18.58-7.944c-3.866,0-7,3.134-7,7s3.134,7 7,7 7-3.134 7-7-3.134-7-7-7zm0,12c-2.762,0-5-2.238-5-5s2.238-5 5-5c2.762,0 5,2.238 5,5s-2.238,5-5,5z"/>
    </g>
  </g>
</svg>
